<svg width="11" height="11" viewBox="0 0 11 11" fill="none" xmlns="http://www.w3.org/2000/svg">
<path d="M7.17215 0.797852H9.70322C10.0548 0.797852 10.3536 0.930187 10.5997 1.19478C10.8457 1.45943 10.9688 1.78076 10.9688 2.15889V4.88088C10.9688 5.25899 10.8458 5.58027 10.5997 5.84487C10.3536 6.10944 10.0547 6.24182 9.70322 6.24182H8.22679C8.05108 6.24182 7.90165 6.30802 7.7786 6.4403C7.65555 6.57251 7.59405 6.73328 7.59405 6.92239V7.1491C7.59405 7.65006 7.75886 8.07761 8.08839 8.43211C8.41794 8.78643 8.81558 8.96366 9.28143 8.96366H9.70322C9.81754 8.96366 9.91637 9.00867 9.9999 9.0984C10.0834 9.18813 10.1251 9.2945 10.1251 9.41737V10.3248C10.1251 10.4475 10.0834 10.5541 9.9999 10.6438C9.9163 10.7335 9.81756 10.7786 9.70322 10.7786H9.28141C8.82438 10.7786 8.38826 10.6827 7.97298 10.4914C7.55773 10.3 7.19854 10.0412 6.89532 9.71514C6.59218 9.38902 6.35158 9.00279 6.17363 8.55618C5.99571 8.10959 5.90671 7.64058 5.90671 7.14913V2.15879C5.90671 1.78066 6.02976 1.45935 6.27579 1.19476C6.52181 0.930162 6.82066 0.797852 7.17215 0.797852Z" fill="#F6762C"/>
<path d="M0.369771 1.19455C0.615775 0.929946 0.914576 0.797607 1.26615 0.797607H3.79711C4.14869 0.797607 4.44747 0.929946 4.69349 1.19455C4.9395 1.45923 5.0625 1.78054 5.0625 2.15868V4.88074C5.0625 5.25886 4.9395 5.58014 4.69349 5.84475C4.44747 6.10932 4.14867 6.24171 3.79711 6.24171H2.3207C2.14499 6.24171 1.99544 6.30791 1.87241 6.44019C1.7495 6.57248 1.68786 6.73318 1.68786 6.9223V7.14901C1.68786 7.64999 1.85267 8.07754 2.18227 8.43205C2.5118 8.78639 2.90934 8.96362 3.37524 8.96362H3.79711C3.91134 8.96362 4.01026 9.00863 4.0937 9.09836C4.1772 9.18809 4.21901 9.29446 4.21901 9.41734V10.3248C4.21901 10.4475 4.1772 10.5541 4.0937 10.6438C4.01029 10.7335 3.91136 10.7786 3.79711 10.7786H3.37524C2.91828 10.7786 2.48218 10.6827 2.06687 10.4914C1.65169 10.3 1.29254 10.0412 0.989306 9.71511C0.686095 9.38899 0.445354 9.00265 0.267523 8.55612C0.0896223 8.10962 0.000579999 7.6405 0.000579999 7.14904V2.15858C0.000649257 1.78044 0.123582 1.45913 0.369771 1.19455Z" fill="#F6762C"/>
</svg>
