<svg width="11" height="11" viewBox="0 0 11 11" fill="none" xmlns="http://www.w3.org/2000/svg">
<path d="M3.79658 0.69043H1.26553C0.91395 0.69043 0.615172 0.822768 0.369052 1.08737C0.123048 1.35202 0 1.67336 0 2.05151V4.77356C0 5.15168 0.122979 5.47297 0.369052 5.73757C0.615148 6.00215 0.914019 6.13453 1.26553 6.13453H2.74194C2.91765 6.13453 3.06708 6.20073 3.19013 6.33302C3.31318 6.46523 3.37468 6.626 3.37468 6.81512V7.04184C3.37468 7.54281 3.20987 7.97037 2.88034 8.32487C2.55079 8.67921 2.15316 8.85644 1.68731 8.85644H1.26553C1.1512 8.85644 1.05237 8.90145 0.968848 8.99118C0.885393 9.08092 0.84363 9.18728 0.84363 9.31016V10.2176C0.84363 10.3403 0.885393 10.4469 0.968848 10.5366C1.05244 10.6263 1.15118 10.6714 1.26553 10.6714H1.68733C2.14436 10.6714 2.58048 10.5755 2.99575 10.3842C3.411 10.1929 3.77019 9.93404 4.0734 9.60794C4.37654 9.28181 4.61715 8.89557 4.79509 8.44894C4.97302 8.00234 5.06201 7.53333 5.06201 7.04186V2.05141C5.06201 1.67326 4.93896 1.35195 4.69294 1.08735C4.44691 0.822743 4.14806 0.69043 3.79658 0.69043Z" fill="#F6762C"/>
<path d="M10.599 1.08761C10.353 0.823009 10.0542 0.690674 9.70262 0.690674H7.17165C6.82007 0.690674 6.52129 0.823009 6.27526 1.08761C6.02925 1.35228 5.90625 1.67358 5.90625 2.05172V4.7737C5.90625 5.15181 6.02925 5.47309 6.27526 5.73769C6.52129 6.00226 6.82009 6.13465 7.17165 6.13465H8.64807C8.82378 6.13465 8.97333 6.20084 9.09636 6.33312C9.21927 6.46541 9.28091 6.6261 9.28091 6.81522V7.04192C9.28091 7.54289 9.1161 7.97043 8.7865 8.32493C8.45696 8.67926 8.05942 8.85648 7.59352 8.85648H7.17165C7.05742 8.85648 6.95849 8.9015 6.87506 8.99123C6.79156 9.08096 6.74975 9.18732 6.74975 9.3102V10.2176C6.74975 10.3403 6.79156 10.4469 6.87506 10.5366C6.95847 10.6263 7.05739 10.6714 7.17165 10.6714H7.59352C8.05049 10.6714 8.48658 10.5755 8.9019 10.3842C9.31708 10.1929 9.67623 9.93406 9.97947 9.60796C10.2827 9.28184 10.5234 8.89551 10.7013 8.449C10.8792 8.00251 10.9682 7.5334 10.9682 7.04195V2.05162C10.9681 1.67348 10.8452 1.35218 10.599 1.08761Z" fill="#F6762C"/>
</svg>
